<?xml version="1.0" encoding="utf-8"?>
<!-- Generator: Adobe Illustrator 22.0.1, SVG Export Plug-In . SVG Version: 6.00 Build 0)  -->
<svg version="1.1" id="Layer_1" xmlns="http://www.w3.org/2000/svg" xmlns:xlink="http://www.w3.org/1999/xlink" x="0px" y="0px"
	 viewBox="0 0 1218 897" style="enable-background:new 0 0 1218 897;" xml:space="preserve">
<style type="text/css">
	.st0{fill:none;}
	.st1{fill:url(#SVGID_1_);}
	.st2{clip-path:url(#SVGID_3_);filter:url(#e);}
	.st3{fill:#FDFDFD;}
	.st4{clip-path:url(#SVGID_5_);filter:url(#d);}
	.st5{clip-path:url(#SVGID_7_);filter:url(#d);}
	.st6{fill:url(#SVGID_8_);}
	.st7{clip-path:url(#SVGID_10_);fill:url(#SVGID_11_);}
	.st8{fill:url(#SVGID_12_);}
	.st9{clip-path:url(#SVGID_14_);fill:url(#SVGID_15_);}
	.st10{fill:#888A85;}
	.st11{fill:#2B2B25;}
	.st12{fill:#CC0000;}
	.st13{fill:#EEEEEC;}
	.st14{opacity:0.7488;fill:url(#SVGID_16_);enable-background:new    ;}
	.st15{opacity:0.3535;filter:url(#v);enable-background:new    ;}
	.st16{fill:#CCCCCC;}
	.st17{fill:#4E9A06;}
	.st18{fill:url(#SVGID_17_);}
	.st19{fill:url(#SVGID_18_);}
	.st20{clip-path:url(#SVGID_20_);filter:url(#e);}
	.st21{opacity:0.3644;filter:url(#c);enable-background:new    ;}
	.st22{fill:#323232;}
	.st23{fill:url(#SVGID_21_);}
	.st24{fill:url(#SVGID_22_);}
	.st25{opacity:3.111000e-02;filter:url(#u);enable-background:new    ;}
	.st26{opacity:0.3111;fill:url(#SVGID_23_);enable-background:new    ;}
	.st27{fill:url(#SVGID_24_);}
	.st28{opacity:0.698;fill:#1E9E00;enable-background:new    ;}
	.st29{opacity:0.6978;}
	.st30{fill:#009800;}
	.st31{fill:#008C00;}
	.st32{fill:url(#SVGID_25_);}
</style>
<filter  height="2.1352" id="v" width="1.1349" x="-.06744" y="-.56758">
	<feGaussianBlur  stdDeviation="16.21657"></feGaussianBlur>
</filter>
<filter  height="1.5958" id="u" width="1.2607" x="-.13033" y="-.29791">
	<feGaussianBlur  stdDeviation="24.8259"></feGaussianBlur>
</filter>
<filter  height="1.4376" id="e" width="1.1914" x="-.09573" y="-.21881">
	<feGaussianBlur  stdDeviation="18.23404"></feGaussianBlur>
</filter>
<filter  height="1.4381" id="d" width="1.1917" x="-.09583" y="-.21905">
	<feGaussianBlur  stdDeviation="18.25434"></feGaussianBlur>
</filter>
<filter  height="2.2602" id="c" width="1.3823" x="-.19116" y="-.63012">
	<feGaussianBlur  stdDeviation="40.50794"></feGaussianBlur>
</filter>
<pattern  y="897" width="256" height="256" patternUnits="userSpaceOnUse" id="h" viewBox="0 -256 256 256" style="overflow:visible;">
	<g>
		<rect y="-256" class="st0" width="256" height="256"/>
		
			<image style="overflow:visible;enable-background:new    ;" width="260" height="260" xlink:href="D5C73FA0.jpg"  transform="matrix(1 0 0 -1 0 0)">
		</image>
	</g>
</pattern>
<g transform="translate(731.44 201.18)">
	
		<linearGradient id="SVGID_1_" gradientUnits="userSpaceOnUse" x1="-853.87" y1="1002.19" x2="-853.87" y2="347.92" gradientTransform="matrix(-1 0 0 -1 -976.2519 696.82)">
		<stop  offset="0" style="stop-color:#00ACF4"/>
		<stop  offset="1" style="stop-color:#A6E5FF"/>
	</linearGradient>
	<path class="st1" d="M486.6,348.8h-1218v-550h1218V348.8z"/>
	<g>
		<defs>
			<path id="SVGID_2_" d="M249.1,43.4c52.9,0,97.3,14.3,107.9,33.9c54.9,0,100.1,17.6,104.8,40.7l0.4,3.8
				c0,15.1-17.7,28.4-44.9,36.5l0.1,0.9c0,32.5-68,58.8-151.7,58.8c-73.7,0-135.1-20.4-148.8-47.4c-44.2-4.8-77.5-25.7-77.5-50.6
				c0-28.5,43.5-51.7,97-51.7c4.1,0,8.1,0.1,12,0.4C165.6,53.8,204.2,43.4,249.1,43.4L249.1,43.4z"/>
		</defs>
		<clipPath id="SVGID_3_">
			<use xlink:href="#SVGID_2_"  style="overflow:visible;"/>
		</clipPath>
		<g class="st2">
			<path class="st3" d="M249.1,43.4c52.9,0,97.3,14.3,107.9,33.9c54.9,0,100.1,17.6,104.8,40.7l0.4,3.8c0,15.1-17.7,28.4-44.9,36.5
				l0.1,0.9c0,32.5-68,58.8-151.7,58.8c-73.7,0-135.1-20.4-148.8-47.4c-44.2-4.8-77.5-25.7-77.5-50.6c0-28.5,43.5-51.7,97-51.7
				c4.1,0,8.1,0.1,12,0.4C165.6,53.8,204.2,43.4,249.1,43.4L249.1,43.4z"/>
		</g>
	</g>
	<g>
		<defs>
			<path id="SVGID_4_" d="M-83.2,137.5c-67.6,0-124.1,19.3-137.7,45.8c-70.1,0-127.8,23.8-133.8,55.1l-0.5,5.2
				c0,20.4,22.7,38.4,57.3,49.3l-0.1,1.3c0,43.9,86.8,79.5,193.7,79.5c94,0,172.5-27.6,190-64.1c56.4-6.5,98.9-34.7,98.9-68.5
				c0-38.6-55.5-69.9-123.8-69.9c-5.2,0-10.3,0.2-15.4,0.5C23.4,151.6-25.9,137.5-83.2,137.5L-83.2,137.5z"/>
		</defs>
		<clipPath id="SVGID_5_">
			<use xlink:href="#SVGID_4_"  style="overflow:visible;"/>
		</clipPath>
		<g class="st4">
			<path class="st3" d="M-83.2,137.5c-67.6,0-124.1,19.3-137.7,45.8c-70.1,0-127.8,23.8-133.8,55.1l-0.5,5.2
				c0,20.4,22.7,38.4,57.3,49.3l-0.1,1.3c0,43.9,86.8,79.5,193.7,79.5c94,0,172.5-27.6,190-64.1c56.4-6.5,98.9-34.7,98.9-68.5
				c0-38.6-55.5-69.9-123.8-69.9c-5.2,0-10.3,0.2-15.4,0.5C23.4,151.6-25.9,137.5-83.2,137.5L-83.2,137.5z"/>
		</g>
	</g>
	<g>
		<defs>
			<path id="SVGID_6_" d="M-602.2-40.7c-30.7,0-56.4,8.8-62.5,20.8c-31.8,0-58,10.8-60.8,25l-0.2,2.4c0,9.3,10.3,17.5,26,22.4
				l-0.1,0.6c0,19.9,39.4,36.1,88,36.1c42.7,0,78.3-12.5,86.3-29.1c25.6-3,44.9-15.8,44.9-31.1c0-17.5-25.2-31.7-56.2-31.7
				c-2.4,0-4.7,0.1-7,0.2C-553.8-34.3-576.2-40.7-602.2-40.7L-602.2-40.7z"/>
		</defs>
		<clipPath id="SVGID_7_">
			<use xlink:href="#SVGID_6_"  style="overflow:visible;"/>
		</clipPath>
		<g class="st5">
			<path class="st3" d="M-602.2-40.7c-30.7,0-56.4,8.8-62.5,20.8c-31.8,0-58,10.8-60.8,25l-0.2,2.4c0,9.3,10.3,17.5,26,22.4
				l-0.1,0.6c0,19.9,39.4,36.1,88,36.1c42.7,0,78.3-12.5,86.3-29.1c25.6-3,44.9-15.8,44.9-31.1c0-17.5-25.2-31.7-56.2-31.7
				c-2.4,0-4.7,0.1-7,0.2C-553.8-34.3-576.2-40.7-602.2-40.7L-602.2-40.7z"/>
		</g>
	</g>
	
		<linearGradient id="SVGID_8_" gradientUnits="userSpaceOnUse" x1="-859.4429" y1="498.6149" x2="-846.4429" y2="-191.8951" gradientTransform="matrix(-1 0 0 -1 -976.2519 696.82)">
		<stop  offset="0" style="stop-color:#55A800"/>
		<stop  offset="1" style="stop-color:#74E400"/>
	</linearGradient>
	<path class="st6" d="M-163,230.5c-137.7,0-210.6,44.7-300.8,78.9c-88.4-1.9-177.7-3.1-267.6-3.6v379.3c0,3.8,5,6.9,11.3,6.9H475.3
		c6.2,0,11.3-3.1,11.3-6.9V250.8c-39.5-5.3-82.5-8.1-127.2-8.1c-106.1,0-176.1,7.8-251,34.1C40.4,248.8-47.6,230.5-163,230.5
		L-163,230.5z"/>
	<g>
		<defs>
			<path id="SVGID_9_" d="M475.1-413.3H-719.9c-6.2,0-11.3,4.6-11.3,10.3V908.9c0,5.7,5,10.3,11.3,10.3H475.1
				c6.2,0,11.3-4.6,11.3-10.3V788.1c-27.9,13.2-58.2,20.8-90.4,20.7c-893.5-2.3-661.7-216.2-477.9-371.4
				C99.7,284.2,175,248.9,359.3,248.9c44.7,0,87.6,4.1,127.1,12V-403C486.4-408.7,481.4-413.3,475.1-413.3L475.1-413.3z"/>
		</defs>
		<clipPath id="SVGID_10_">
			<use xlink:href="#SVGID_9_"  style="overflow:visible;"/>
		</clipPath>
		
			<linearGradient id="SVGID_11_" gradientUnits="userSpaceOnUse" x1="-1177.5784" y1="304.2865" x2="-1183.2883" y2="-285.1335" gradientTransform="matrix(-0.5361 0 0 -0.7999 -825.847 247.108)">
			<stop  offset="0" style="stop-color:#007900"/>
			<stop  offset="1" style="stop-color:#008400;stop-opacity:0"/>
		</linearGradient>
		<path class="st7" d="M-163,230.7c184.3,0,298.7,69.9,373.7,156.6c47.1,54.4,2123.5,263.4-375.3,305.1
			c-2503,41.7-594.1-298.4-447.4-339.5C-463.2,311.1-347.3,230.7-163,230.7z"/>
	</g>
	
		<linearGradient id="SVGID_12_" gradientUnits="userSpaceOnUse" x1="-865.04" y1="338.2441" x2="-836.05" y2="338.2441" gradientTransform="matrix(-1 0 0 -1 -976.2519 696.82)">
		<stop  offset="0" style="stop-color:#8F5902"/>
		<stop  offset="1" style="stop-color:#724701"/>
	</linearGradient>
	<path class="st8" d="M-96.6,282.3c0.3,40.9,15.5,88.9,14.3,146.5c-38-3.7-35.8,11.6-56.5,4.1c-6.5-62,12.4-84.1,2-143
		C-122,269.7-124.9,329.3-96.6,282.3L-96.6,282.3z"/>
	<g>
		<defs>
			<path id="SVGID_13_" d="M475.3-201.2H-720.1c-6.3,0-11.3,3.1-11.3,6.9v879.4c0,3.8,5,6.9,11.3,6.9H475.3c6.2,0,11.3-3.1,11.3-6.9
				v-879.4C486.6-198.1,481.6-201.2,475.3-201.2L475.3-201.2z"/>
		</defs>
		<clipPath id="SVGID_14_">
			<use xlink:href="#SVGID_13_"  style="overflow:visible;"/>
		</clipPath>
		
			<linearGradient id="SVGID_15_" gradientUnits="userSpaceOnUse" x1="-949.0236" y1="137.5663" x2="-949.0236" y2="-353.9436" gradientTransform="matrix(-0.5362 0 0 -0.5362 -303.5186 271.232)">
			<stop  offset="0" style="stop-color:#00A400"/>
			<stop  offset="1" style="stop-color:#67CB00"/>
		</linearGradient>
		<path class="st9" d="M-81.8,369.1c112.4-78.8,256.9-126.4,441.3-126.4s340.2,47,340.1,126.4c-0.1,81.3-119.3,258.9-303.4,249
			C-679.8,559.9-195.2,448.7-81.8,369.1L-81.8,369.1z"/>
	</g>
	<path class="st10" d="M-557.9,117.6l73.3-4.7l89,4.1l19.1-5.4L-400,94.8l-73-21.9l-108.2,12l9.4,21.5L-557.9,117.6L-557.9,117.6z"
		/>
	<path class="st10" d="M-600.2,223.2l111.8-16l128,14.4l25.4-10.9l-2.1-8.9l-139.6-34.5l-108.2,12l-42.4,26.6L-600.2,223.2
		L-600.2,223.2z"/>
	<path class="st11" d="M-565.9,49.3l-13.7,10.4l-34.4-0.6l22.4-13.3L-565.9,49.3L-565.9,49.3z"/>
	<path class="st12" d="M-598.2,21.6l6.2,23.3l26.2,3.4L-598.2,21.6L-598.2,21.6z"/>
	<path class="st12" d="M-598.7,22.8l-15.7,36.4l22-13.4C-592.6,43.5-596.3,30.9-598.7,22.8L-598.7,22.8z"/>
	<path class="st12" d="M-385.4,22.1l0.3,17.8l33.3,9L-385.4,22.1L-385.4,22.1z"/>
	<path class="st12" d="M-384,22l-25.3,28.3l25.2-10.5C-384.4,37.5-383.7,30.4-384,22L-384,22z"/>
	<path class="st11" d="M-352.7,49.1L-389,59.8l-21.4-10.7l25.4-10.7L-352.7,49.1L-352.7,49.1z"/>
	<path class="st12" d="M-321.4,112.7l-22.3,32.2l18.2-7.8L-321.4,112.7L-321.4,112.7z"/>
	<path class="st12" d="M-320.9,113l-5.7,24.5l22.9,11.8L-320.9,113L-320.9,113z"/>
	<path class="st11" d="M-304.4,147.7l-28.3,5.6l-11-7.8l18.5-8.2L-304.4,147.7L-304.4,147.7z"/>
	<path class="st10" d="M-484.9,90.8l1.5,65.3l-71,16.8l-4-60.6L-484.9,90.8L-484.9,90.8z"/>
	<path class="st11" d="M-526.2,109.8c7.4-1.8,13.6,3.2,14,11.2c0,0.3,0,0.5,0,0.8l0,0.2l1.7,40.1l-26.7,6.5l-1.7-39.5
		c0-0.5,0-1.1-0.1-1.6C-539.3,119.6-533.6,111.7-526.2,109.8L-526.2,109.8z"/>
	<path class="st13" d="M-395.7,111.9c-1.1,21.4-0.8,53.4-0.9,62.5l-82.3-8.8c-2.1-25-4.7-49.8-5.7-75.1
		C-453.7,95.5-423.5,102.7-395.7,111.9L-395.7,111.9z"/>
	<path class="st11" d="M-433.8,108.5c-6.9-1.1-12.5,2.3-12.6,7.5c0,0.2,0,0.3,0,0.5l0,0.1c-0.1,7.9-0.5,26.3-0.5,26.3l24.9,3.9
		l0.5-25.8c0-0.4,0-0.7,0-1.1C-421.4,114.8-426.9,109.6-433.8,108.5L-433.8,108.5z"/>
	<pattern  id="SVGID_16_" xlink:href="#h" patternTransform="matrix(1 0 0 -1 -47 -17053.0566)">
	</pattern>
	<path class="st14" d="M-406.6,359.6h-39.8l47.5,24.5c0,0-6.1,10.7-13.8,13.8s-26,10.7-24.5,16.9c1.5,6.1,26,7.7,30.6,21.4
		s-49,18.4-61.3,32.2s96.5,225.2,96.5,225.2h229.8c0,0-211.4-205.3-225.2-225.2c-13.8-19.9,79.7-16.9,76.6-32.2s-81.2-26-79.7-35.2
		c1.5-9.2,39.8-1.5,44.4-15.3C-320.8,371.8-406.6,359.6-406.6,359.6L-406.6,359.6z"/>
	<g class="st15">
		<ellipse cx="-469.4" cy="361.1" rx="154.7" ry="18.4"/>
	</g>
	<path class="st13" d="M-542.9,359.3l36.5,1l33.1,2.1l96.1-4.6c0,0,17.2-139.8,17.3-144c-54.3-24.7-109.4-33.8-110.1-33.8
		l-62.2,20.8l-44.3-1.8l-25.3,16.2l38.9,133.2L-542.9,359.3L-542.9,359.3z M-543,358.9l-33.7-159.6"/>
	<path class="st10" d="M-576.7,199.7c12.5,59,21.6,101,33.3,158.8l-19.4-10.2c-14.9-51.9-24.3-83.3-38.6-132.7L-576.7,199.7
		L-576.7,199.7z"/>
	<path class="st10" d="M-470.3,180.2c-3.6,60.6-6.5,122.1-3.2,182.2l-32.4-2.3c-11.2-52.6-20.4-105.8-25.9-159.3L-470.3,180.2
		L-470.3,180.2z"/>
	<path class="st10" d="M-586.9,209.5l-7.4,5.5l-14.5-4.4l10.5-5.7L-586.9,209.5L-586.9,209.5z"/>
	<path class="st10" d="M-512.8,199.7l-6.2,1.5l-7.2-3l6.8-2.8L-512.8,199.7L-512.8,199.7z"/>
	<path class="st10" d="M-496.5,194.2l-6.2,1.5l-7.2-3l6.8-2.8L-496.5,194.2L-496.5,194.2z"/>
	<path class="st10" d="M-478.6,188.3l-6.7,1.6l-6.7-3.1l6.8-2.8L-478.6,188.3L-478.6,188.3z"/>
	<path class="st13" d="M-522,109.7c-9.9-1.5-16.5,9.7-16.9,15.1c-0.4,5.9,0.1,12.8,0.8,23.3c0.4,6.2,0.4,13.2,0.9,20.5l6.6-1.7
		l-1.8-38.8c0-0.5,0-1.1-0.1-1.6C-532.6,119.5-528.1,112.5-522,109.7L-522,109.7z"/>
	<path class="st16" d="M-437.7,108.5c9.1-1.1,15.5,6.1,16,9.6c0.5,3.9,0.2,8.4-0.1,15.3c-0.2,4.1,0,8.7-0.3,13.4l-6.2-1l0.6-25.4
		c0-0.3,0-0.7,0-1.1C-427.6,114.8-431.9,110.2-437.7,108.5L-437.7,108.5z"/>
	<path class="st12" d="M-485.2,89.8l0.7,29.2l26.9,8.9L-485.2,89.8L-485.2,89.8z"/>
	<path class="st12" d="M-484.7,90.4l-22.1,37.6l23.3-11.4C-483.7,114.4-484.4,98.9-484.7,90.4L-484.7,90.4z"/>
	<path class="st13" d="M-331,175.7L-357,164l-0.6,17l-18.5-7.3l0-16.3l-19.9-5.3l0.2,14.4l-20.4-6.7l0.7-16.4l-23.1-5.3l-0.7,17.4
		l-29.1-4.4l-0.3,21.1c46.8,5.7,108.1,25.5,134.5,38.2L-331,175.7L-331,175.7z"/>
	<path class="st10" d="M-468.8,150.8l-39.3,9.4l-0.8-10.2l-16.1,4.3l0.8,9.4l-17.4,5.3l4.2,27l68.9-24.2L-468.8,150.8L-468.8,150.8z
		"/>
	<path class="st13" d="M-542.1,159.6l-19-5.2l0.9,15.3l-12.1-3.2l-0.6-13.3l-17.4-4.1l0.1,38.9l52.4,8.1
		C-539.6,183.9-541.7,171.2-542.1,159.6L-542.1,159.6z"/>
	<path class="st10" d="M-589.2,167.9l1.9,20l-40.3,18.1l-7.9-25.2l28.5-22.1l0.4,15.7L-589.2,167.9L-589.2,167.9z"/>
	<path class="st13" d="M-589.3,199.1l3.5,9.7l-11.9-4.8l-4.2-10.9L-589.3,199.1L-589.3,199.1z"/>
	<path class="st13" d="M-514.1,192.3l1.5,7.4l-6.4-4l-2.3-8L-514.1,192.3L-514.1,192.3z"/>
	<path class="st13" d="M-498.2,186.7l1.5,7.4l-6.4-4l-2.3-8L-498.2,186.7L-498.2,186.7z"/>
	<path class="st12" d="M-647,119.3l-3.4,28.4l36.3-0.4L-647,119.3L-647,119.3z"/>
	<path class="st12" d="M-647.6,120.2l-21.5,43.3l20.6-16.7L-647.6,120.2L-647.6,120.2z"/>
	<path class="st11" d="M-614.3,147.6l-7.6,5.1l-15.7,9.6l-30.2,0.7l19.7-16.1L-614.3,147.6L-614.3,147.6z"/>
	<path class="st11" d="M-457,127.1l-30,5.2l-20.9-2.4l24.6-12L-457,127.1L-457,127.1z"/>
	<path class="st13" d="M-467.7,125.9l-15.8-5.9l1.4,36.5l15.4,3.3L-467.7,125.9L-467.7,125.9z"/>
	<path class="st10" d="M-497.7,163.5l15.6-7.7l-1.4-35.8l-15,9.1L-497.7,163.5L-497.7,163.5z"/>
	<path class="st10" d="M-468,159.7l-14,4.3l-14.9-1l14.8-6.6L-468,159.7L-468,159.7z"/>
	<path class="st13" d="M-620.4,151.4l-26.1-0.3l8.5,36.1l26-0.8L-620.4,151.4L-620.4,151.4z"/>
	<path class="st10" d="M-649.8,198.5l13.7-10.9l-10.9-36.1l-13.8,10.6L-649.8,198.5L-649.8,198.5z"/>
	<path class="st10" d="M-613.1,186.8l-20.6,11.3l-15.2,0.1l10.6-11.1L-613.1,186.8L-613.1,186.8z"/>
	<path class="st13" d="M-308.7,148.1l-17.3-7.1l-5,45.5l19.2,7.8L-308.7,148.1L-308.7,148.1z"/>
	<path class="st10" d="M-342.2,194.2l13.1-6.7l2.7-46.7l-13.3,5.5L-342.2,194.2L-342.2,194.2z"/>
	<path class="st10" d="M-325,200.6l-18.5-7.1l14.4-7.5l18.5,7.1C-310.5,193.1-325,200.6-325,200.6z"/>
	<path class="st13" d="M-494.9,43.3l11.2,4.4l0.2,21.7l12.6,2.4l0.8-17l13.3,2.7l-0.5,16.8l17.2,4.5l0.8-17.7l14.5,5.2l-0.9,16.3
		l10,2.6l1.7-12.8l41.1,16.1l-3.4,23.1c-36.3-16.6-75.6-24.8-116.9-27.4L-494.9,43.3L-494.9,43.3z"/>
	<path class="st10" d="M-493.3,84.1l-2.1-41l-9.4,3.8l1,18.4l-8.1,2.3l-0.3-18.6l-13.5,5.5l1.8,16.4l-12.8,3.3l-2.3-14.5l-11.8,5.2
		l2.6,13.8l-11.7,3L-563,68l-10.7,4.7l1.5,12.6l-8.4,3.6l8.6,17L-493.3,84.1L-493.3,84.1z"/>
	<path class="st13" d="M-570.5,51.1l-20.2-2.4l3.7,40l22,1.5L-570.5,51.1L-570.5,51.1z"/>
	<path class="st10" d="M-598.9,94.3l14-6.2l-6.9-38.6l-13.5,7.9L-598.9,94.3L-598.9,94.3z"/>
	<path class="st10" d="M-580.6,95.5l-18.5-1.1l12.7-6.3l21.2,2.8L-580.6,95.5z"/>
	<path class="st13" d="M-362.8,50.3l-22.4-6.9l-4.9,37.2l28.8,9.1L-362.8,50.3L-362.8,50.3z"/>
	<path class="st10" d="M-406.7,88.2l19.5-7.7l1.3-36.8l-19.4,6.9L-406.7,88.2L-406.7,88.2z"/>
	<path class="st10" d="M-378.2,97.9l-29.2-9l20.9-8.4l23.6,9.3C-362.8,89.8-378.2,97.9-378.2,97.9z"/>
	<path class="st11" d="M-387.7,221c-6.3-0.5-11.9,3.3-12.6,8.6c0,0.2-0.1,0.4-0.1,0.5l0,0.1l-3.5,26.4l22.6,1.8l3.6-26
		c0-0.4,0.1-0.7,0.1-1.1C-376.9,226.2-381.4,221.6-387.7,221L-387.7,221z"/>
	<path class="st16" d="M-391.3,221.3c8.6-1.9,13.7,4.8,13.7,8.3c0,3.8-0.8,8.4-1.9,15.3c-0.7,4.1-1.1,8.7-1.9,13.5l-5.6-0.5
		l3.6-25.6c0-0.4,0.1-0.7,0.1-1.1C-382.7,226.8-386.2,222.6-391.3,221.3L-391.3,221.3z"/>
	<path class="st11" d="M-432,212.4c-6.7,0-12.5,4.9-13,10.9c0,0.2,0,0.4-0.1,0.6l0,0.1l-2.7,30.4l24.1,0.1l2.7-29.9
		c0-0.4,0.1-0.8,0.1-1.2C-420.3,217.4-425.3,212.4-432,212.4L-432,212.4z"/>
	<path class="st16" d="M-435.8,213.1c9.1-2.9,14.7,4.3,14.9,8.2c0.2,4.4-0.5,9.6-1.4,17.7c-0.6,4.8-0.8,10-1.5,15.6l-6-0.1l2.8-29.5
		c0-0.4,0.1-0.8,0.1-1.2C-426.4,218.5-430.3,214.1-435.8,213.1L-435.8,213.1z"/>
	<path class="st11" d="M-420.6,295.4c-11.8,0.4-21.5,8.3-21.8,17.5c0,0.3,0,0.6,0,0.9l0,0.2c-0.5,14-1.7,46.6-1.7,46.6l42.4-1.4
		l1.8-45.9c0-0.6,0-1.3,0.1-1.9C-399.6,302.2-408.8,295-420.6,295.4L-420.6,295.4z"/>
	<path class="st16" d="M-427.2,296.7c15.6-5,26.3,5.6,27,11.6c0.8,6.7,0.1,14.7-0.8,27.1c-0.5,7.3-0.4,15.3-1,23.9l-10.5,0.2
		l1.9-45.2c0-0.6,0-1.2,0.1-1.9C-410.2,304.3-417.4,297.8-427.2,296.7L-427.2,296.7z"/>
	<path class="st11" d="M-551.2,217.6c-6.4,0.2-10.9,4.5-10,9.6c0,0.2,0,0.3,0.1,0.5l0,0.1l4.3,25.9l23.2-0.6l-4.2-25.5l-0.2-1.1
		C-538.8,221.5-544.7,217.4-551.2,217.6L-551.2,217.6z"/>
	<path class="st16" d="M-554.7,218.3c8-2.7,15.1,3.2,16.2,6.6c1.2,3.7,1.7,8.2,2.6,15c0.5,4.1,1.5,8.5,2.2,13.3l-5.8,0.1l-4.1-25.1
		c-0.1-0.3-0.1-0.7-0.2-1C-544.4,222.6-549.2,218.9-554.7,218.3L-554.7,218.3z"/>
	<path class="st11" d="M-317.3,148.8c-3-1-5.5,0.4-5.7,3.2c0,0.1,0,0.2,0,0.3l0,0.1l-1,13.8l10.8,3.6l1-13.5c0-0.2,0-0.4,0-0.6
		C-312.1,152.8-314.4,149.8-317.3,148.8L-317.3,148.8z"/>
	<path class="st16" d="M-319,148.5c4,0,6.6,4.2,6.7,6c0.1,2.1-0.1,4.4-0.5,8c-0.2,2.1-0.3,4.5-0.5,7l-2.7-0.9l1-13.3
		c0-0.2,0-0.4,0-0.6C-314.8,152.4-316.6,149.8-319,148.5L-319,148.5z"/>
	<path class="st11" d="M-490.8,127.9c2.7-1.1,4.9,0.2,5,2.9c0,0.1,0,0.2,0,0.3c0,0,0,0,0,0.1c0,4.1,0.1,13.8,0.1,13.8l-9.9,4.1
		l-0.1-13.5c0-0.2,0-0.4,0-0.6C-495.8,132.2-493.6,129-490.8,127.9L-490.8,127.9z"/>
	<path class="st13" d="M-489.3,127.5c-3.6,0.2-6.2,4.5-6.4,6.4c-0.2,2.1-0.1,4.4,0,8c0.1,2.1,0,4.6,0.1,7l2.5-1.1l-0.1-13.3
		c0-0.2,0-0.4,0-0.6C-493.3,131.6-491.6,128.9-489.3,127.5L-489.3,127.5z"/>
	<path class="st11" d="M-652.8,161.2c2.3-1.6,4.8-1,5.5,1.4c0,0.1,0.1,0.2,0.1,0.2l0,0l3.7,11.9l-8.4,5.9l-3.6-11.7
		c-0.1-0.2-0.1-0.3-0.1-0.5C-656.4,166-655.1,162.8-652.8,161.2L-652.8,161.2z"/>
	<path class="st13" d="M-651.4,160.5c-3.4,1-4.8,5.3-4.5,7c0.3,1.9,1,3.9,2.1,7c0.6,1.8,1.2,4,1.9,6.1l2.1-1.5l-3.6-11.5
		c0-0.2-0.1-0.3-0.1-0.5C-654.2,165-653.2,162.2-651.4,160.5L-651.4,160.5z"/>
	<path class="st11" d="M-379.9,52.2c0,0.1,0,0.2,0,0.3l0,0.1l0.3,13.5l12.4,3.2l-0.2-13.3c0-0.2,0-0.4,0-0.6
		c-0.1-2.7-2.9-5.6-6.3-6.5C-377.2,48.1-379.9,49.5-379.9,52.2z"/>
	<path class="st16" d="M-375.7,48.8c4.5-0.1,7.8,3.9,8.1,5.7c0.3,2,0.3,4.3,0.2,7.9c0,2.1,0.1,4.5,0.1,6.9l-3.1-0.8l-0.2-13.1
		c0-0.2,0-0.4,0-0.5C-370.6,52.5-372.8,49.9-375.7,48.8L-375.7,48.8z"/>
	<path class="st11" d="M-597.7,57.7c2.3-0.9,4.5,0.2,4.9,2.5c0,0.1,0,0.1,0,0.2l0,0l2,11.2l-8.3,3.2l-2-11c0-0.2-0.1-0.3-0.1-0.5
		C-601.5,61.1-600,58.5-597.7,57.7L-597.7,57.7z"/>
	<path class="st13" d="M-596.4,57.4c-3.2,0.1-4.9,3.5-4.8,5.1c0.1,1.7,0.5,3.6,1.1,6.5c0.4,1.7,0.6,3.7,1.1,5.7l2-0.8l-2-10.9
		c0-0.1-0.1-0.3-0.1-0.5C-599.4,60.7-598.2,58.5-596.4,57.4L-596.4,57.4z"/>
	<path class="st11" d="M-357.6,162.8l-0.1,18.4l-6.3-2.6l-0.3-14.1L-357.6,162.8L-357.6,162.8z"/>
	<path class="st11" d="M-396.4,152l-0.1,14.7l-4.1-1.9l-1.3-10.9L-396.4,152L-396.4,152z"/>
	<path class="st11" d="M-438.4,138.1l-0.7,17l-5.3-1.1l-0.2-12.9L-438.4,138.1L-438.4,138.1z"/>
	<path class="st11" d="M-508.5,149.5l1,11.3l4.1-1.6l-1.1-7.6L-508.5,149.5L-508.5,149.5z"/>
	<path class="st11" d="M-560.8,154.3l0.5,15.2l-3.4-1.3l-0.5-11.3L-560.8,154.3L-560.8,154.3z"/>
	<path class="st11" d="M-590.9,148.7l1.3,18.7l-3.7,1.9l-0.7-18.4L-590.9,148.7L-590.9,148.7z"/>
	<path class="st11" d="M-603.1,159.8l1,13.9l-4.1,1.9l-0.7-17.3L-603.1,159.8L-603.1,159.8z"/>
	<path class="st11" d="M-414.1,71.6l-1.6,13.8l-3.9-0.9l0.9-12.1L-414.1,71.6L-414.1,71.6z"/>
	<path class="st11" d="M-439.6,60.5l-0.9,18.1l-4.1-0.7l-0.7-16.1L-439.6,60.5L-439.6,60.5z"/>
	<path class="st11" d="M-470.5,54.4l-0.9,17.1l-3.7-0.8l-0.7-15L-470.5,54.4L-470.5,54.4z"/>
	<path class="st11" d="M-512.2,48.8l0.7,19.6l4.3-1.5l-0.9-16.8L-512.2,48.8L-512.2,48.8z"/>
	<path class="st11" d="M-538.6,59.1l2.8,15.4l3.7-0.8l-3-14L-538.6,59.1L-538.6,59.1z"/>
	<path class="st11" d="M-562.6,67.3l3.1,15.1l3.7-0.8l-2.5-13.6L-562.6,67.3L-562.6,67.3z"/>
	<path class="st10" d="M-602.6,192.5l4.9,11.7l-12.9,6.3l-4-12L-602.6,192.5L-602.6,192.5z"/>
	<path class="st10" d="M-505.8,182l2.7,7.9l-7.2,2.9l-2.3-8L-505.8,182L-505.8,182z"/>
	<path class="st10" d="M-519.2,195.4l-7.4,2.9l-2-8.1l7-2.6L-519.2,195.4z"/>
	<path class="st13" d="M-479.9,180.8l1.5,7.4l-6.4-4l-2.3-8L-479.9,180.8L-479.9,180.8z"/>
	<path class="st10" d="M-487.5,176.1l2.5,7.8l-7.2,2.9l-2.3-8L-487.5,176.1L-487.5,176.1z"/>
	<path class="st10" d="M-432.4,190.4l-11.1,4.9l-14.6-2.9l12.9-6.2L-432.4,190.4L-432.4,190.4z"/>
	<path class="st10" d="M-443.2,173.5l-2.1,12.8l-10.6,6.3l1.4-10.3L-443.2,173.5L-443.2,173.5z"/>
	<path class="st13" d="M-443.1,173.4l-2.1,12.5l13.1,4l1.7-12.9L-443.1,173.4L-443.1,173.4z"/>
	<path class="st10" d="M-406.5,182.4l-2.1,12.8l-10.6,6.3l1.4-10.3L-406.5,182.4L-406.5,182.4z"/>
	<path class="st10" d="M-407.2,203.5l-11.9-1.8l10.1-7.3l12.9,4.1L-407.2,203.5z"/>
	<path class="st13" d="M-406.6,181.9l-2.1,12.5l13.1,4l1.7-12.9L-406.6,181.9L-406.6,181.9z"/>
	<path class="st10" d="M-371.2,192.5l-2.1,12.8l-10.6,6.3l1.4-10.3L-371.2,192.5L-371.2,192.5z"/>
	<path class="st10" d="M-360.3,209.2l-11.1,4.9l-15.2-3.4l13.4-5.6L-360.3,209.2L-360.3,209.2z"/>
	<path class="st13" d="M-371.2,192.6l-2.1,12.5l13.1,4l1.7-12.9L-371.2,192.6L-371.2,192.6z"/>
	<path class="st17" d="M-639.4,199.9c6.2,1.8,10,3.8,10.9,3c-0.8,0.7-20.4,6.2-15.8,1.1c1.7,0,13.6-3.3,17.9-0.8
		c-1,3.8,2.3-6.5,7.2-6.8c-0.3,0.6-0.2,10.8,0.7,9.6c-0.1-3.6,2.5,3.7,4.3,4.6c1.5-0.5,3.7-0.4,1.4,1.1c8,8.3,4.7-7.2,4.3,1.6
		c-0.5,19.3,7.3-3.2,4.5,2.3c0.8,1,5.7,2.6,5.7,2.7c0.9,1.3,4-0.7,4.7,2.6c-2.2-1.4,0.5,24.9-6.9,13.7c1.2,0.4,3.1-0.3,3.5-0.4
		c-6.8,6.4,5.4-6.1,7.2-6.3c-7.3,7.3-5.4,5.4-0.3,2.7c3.2-0.4,20.6-4.3,11.4-0.7c4.6,0.4,0.1-2.5,7-2c6.1,7.7,3,3.4,2.7,7.3
		c-0.1-2.3,8,2.2,1.8,1.4c4.4-0.2,0.2,7.9,4.2,8.3c0.8,4.4-3.2-5.3-1.9-4.2c0.5-1.2,12.8,7.5,16.6,11.7c0.4,1.8-4-6.7-3.7-5.6
		c0.9,4.6,9.3-0.6,6.3,5.3c0.4,9.1-3.1,2.4,2,9.6c-5.1-1.6,6.3,8.3,1.4,3.8c-0.2,4.4,3.8,0.1,1.2-1.3c1.9,0.2-2.3,8.7,2.4,13.4
		c-5.3,8.1-1.5,3.9-0.3,5.3c1.9-0.3,3.3-0.6,1.7,2.8c-0.1,1.7-3.2,11.2-3.4,14c2.9-1.5-2-3.6,1.7-2.6c2.9,1.9-0.9,12.2,6,12.3
		c-0.5-4.9-5.6,1.3-8.9,0.2c-9,7.4-0.5,3.7-1.3,5.5c-1,1.5-10.4,2.9-6.8,5.3c-1.9,4.2-2.6,5.7-3.5,2.4c-8.3,0,1.3-0.7-1.4,4.2
		c-0.9,1.3,2.5,14.6,0.7,14.5c-1.4,0.8-8.2,2-11.1,2.1c-5.3,1.1-0.2-5.5-1.1-3.5c-6.7,6.2,2.8,1.7-1.2,1c-11.8-5.1-0.3,9.9-6.1,10.6
		c0.7,2.3-0.3-2.8-0.6,1.8c-1.7,0.4-10.2-27.7-12.9-13.8c-1-4.2,3.8,9.1-0.1,6.5c-3.2,3.2-4.4-0.6-6.9,1.5c-1.2-0.2-3.4,1.2-5.4,4
		c-3.7,0.8-7-5-4.2-4.1c-2.3-0.2-3.4-0.1-5.4-0.7c-8.1-6.3-0.6-12.1-3.3-7.8c1-2.2-0.1,9.1-4.7,4.4c-2.6-2.8,4.6-1-3.4,2.5
		c-0.4,0.2-2.9,1.3-4.7,2.4c-0.5-5.2-0.5,5.3-3.4,5.1c-2.3-0.7-11.2-7.1-13-6.4c2.6-10.2,2,10.3,2.8,9.8c-4.3-1.6-6.9-4.9-7.9-4.6
		c4.9,0.1-0.3,4.5-0.8,3c-1.1-2.4-22.4,4.1-24.1,4.1c2.6,8,7-10.5,7.7-5.7c-3.3-4.8-0.8-2.7-3.1,2.1c-2.4-0.9-1.8-0.2-2.3,0.1
		c10.3,9.2-2.8,1.3-4.4-1.6c-0.1-4.7-11.9,2.8-12,1.4c-1.3-0.2,2.5-5.8,4.2-4.7c1.9-6.1-3.6,1.5-5.2,0.2c-1-3.6-4.2-6.4-6.8-9.1
		c-1.3-0.7-0.5,3.6,0.3,6.9c0.5-2.4,2.3-16.4-2.5-13.6c-3-4.5-3.1-2.5-7.6-2.4c1.5-0.6,3.5-3.6,0.4-1.2c-0.7-1.5,4.5-7.4,0.1-0.5
		c-3.4-5.9,1.4-6.6,0.6-8c-1-1.5-1.9-7.1-7.8-7.1c0.1-1.3-4-11.4-4.5-10.6c0.2-1.1,8.1-0.7,7.4-1.5c-3.2-2,1.9-8.5,0.3-6.3
		c-2.3-0.7-0.6,5.1-3.9,0.2c-4.2,4.4,1,0.4-0.2-0.5c0-4,2.3,3.4-2.7-2c-2.4,1.4-4.1,3.4-7.1,0.4c8.1-3.1-2.7-15.3,0.3-13.3
		c-3.9-2.6,0.6-2.4-0.3-4.9c-3.5-2.9,2.6-5.3,0.5-7.4c-3.8,1.9-4.9,11.8,1.3,10.6c3.3,1.5,22.6-6.5,6.4-12c-3.6,1.5,1.4-0.9-0.5-1.9
		c0.9-0.6-20.5-1.1-14.6-11.9c-0.6-5,11.9-1.5,11-4c0.4-2.6,5.4-3.9,4.1-7.1c0.4-1.8,2.8-1.6,0.2-4.4c-4.4-7.4,4.1-0.7,2.5-1.8
		c-8.6,2.5,3.1-5.4,8.1-5.2c1.9-1.3,10.3-5.6,3.4-6.2c1.8,1.1-0.4-5.7-1.3-4.4c-0.6,2.8,16.2-2.7,9.1-3.8c1.1-0.9,3,7,3.8,4.9
		c-0.1-1.6-6.7-16.1,3.7-4.1c-0.4-4,2.9-9.3,6.5-5c1.5-0.9-2.9,5,2.6,4.2c0.3-4-1.2-5.4,0.4-6.4c-2.5,9.4,4.4-0.9,6.1-0.8
		c0.5-1.8,0.1,0.2,8.9-5c-1.6,7.3,1.2-10,3.8-8.5c-2.4,6.6-0.3,13.7-3.3,7c3.9-1,1.8,0.6,5.5-1c-2.7-1.3,8.7-11.4,6.1-12.7
		c0.2-9.1,9.1,13.8,7,10.6"/>
	
		<linearGradient id="SVGID_17_" gradientUnits="userSpaceOnUse" x1="-347.94" y1="292.2741" x2="-376.94" y2="292.2741" gradientTransform="matrix(-1 0 0 -1 -976.2519 696.82)">
		<stop  offset="0" style="stop-color:#8F5902"/>
		<stop  offset="1" style="stop-color:#724701"/>
	</linearGradient>
	<path class="st18" d="M-642.9,328.2c-0.3,40.9-15.5,88.9-14.3,146.5c38-3.7,35.8,11.6,56.5,4.1c6.5-62-12.4-84.1-2-143.1
		C-617.6,315.6-614.7,375.2-642.9,328.2L-642.9,328.2z"/>
	
		<linearGradient id="SVGID_18_" gradientUnits="userSpaceOnUse" x1="-846.8957" y1="503.9282" x2="-857.1257" y2="434.2182" gradientTransform="matrix(-1 0 0 -1 -976.2519 696.82)">
		<stop  offset="0" style="stop-color:#4E9A06"/>
		<stop  offset="1" style="stop-color:#3F7D04"/>
	</linearGradient>
	<path class="st19" d="M-130.8,158.5c6.2,1.8,10,3.8,10.9,3c-0.8,0.7-20.4,6.2-15.8,1.1c1.7,0,13.6-3.3,17.9-0.8
		c-1,3.8,2.3-6.5,7.2-6.8c-0.3,0.6-0.2,10.8,0.7,9.6c-0.1-3.6,2.5,3.7,4.3,4.6c1.5-0.5,3.7-0.4,1.4,1.1c8,8.3,4.7-7.2,4.3,1.6
		c-0.5,19.3,7.3-3.2,4.5,2.3c0.8,1,5.7,2.6,5.7,2.7c0.9,1.3,4-0.7,4.7,2.6c-2.2-1.4,0.5,24.9-6.9,13.7c1.2,0.4,3.1-0.3,3.5-0.4
		c-6.8,6.4,5.4-6.1,7.2-6.3c-7.3,7.3-5.4,5.4-0.3,2.7c3.2-0.4,20.6-4.3,11.4-0.7c4.6,0.4,0.1-2.5,7-2c6.1,7.7,3,3.4,2.7,7.3
		c-0.1-2.3,8,2.2,1.8,1.4c4.4-0.2,0.2,7.9,4.2,8.3c0.8,4.4-3.2-5.3-1.9-4.2c0.5-1.2,12.8,7.5,16.6,11.7c0.4,1.8-4-6.7-3.7-5.6
		c0.9,4.6,9.3-0.6,6.3,5.3c0.4,9.1-3.1,2.4,2,9.6c-5.1-1.6,6.3,8.3,1.4,3.8c-0.2,4.4,3.8,0.1,1.2-1.3c1.9,0.2-2.3,8.7,2.4,13.4
		c-5.3,8.1-1.5,3.9-0.3,5.3c1.9-0.3,3.3-0.6,1.7,2.8c-0.1,1.7-3.2,11.2-3.4,14c2.9-1.5-2-3.6,1.7-2.6c2.9,1.9-0.9,12.2,6,12.3
		c-0.5-4.9-5.6,1.3-8.9,0.2c-9,7.4-0.5,3.7-1.3,5.5c-1,1.5-10.4,2.9-6.8,5.3c-1.9,4.2-2.6,5.7-3.5,2.4c-8.3,0,1.3-0.7-1.4,4.2
		c-0.9,1.3,2.5,14.6,0.7,14.5c-1.4,0.8-8.2,2-11.1,2.1c-5.3,1.1-0.2-5.5-1.1-3.5c-6.7,6.2,2.8,1.7-1.2,1c-11.8-5.1-0.3,9.9-6.1,10.6
		c0.7,2.3-0.3-2.8-0.6,1.8c-1.7,0.4-10.2-27.7-12.9-13.8c-1-4.2,3.8,9.1-0.1,6.5c-3.2,3.2-4.4-0.6-6.9,1.5c-1.2-0.2-3.4,1.2-5.4,4
		c-3.7,0.8-7-5-4.2-4.1c-2.3-0.2-3.4-0.1-5.4-0.7c-8.1-6.3-0.6-12.1-3.3-7.8c1-2.2-0.1,9.1-4.7,4.4c-2.6-2.8,4.6-1-3.4,2.5
		c-0.4,0.2-2.9,1.3-4.7,2.4c-0.5-5.2-0.5,5.3-3.4,5.1c-2.3-0.7-11.2-7.1-13-6.4c2.6-10.2,2,10.3,2.8,9.8c-4.3-1.6-6.9-4.9-7.9-4.6
		c4.9,0.1-0.3,4.5-0.8,3c-1.1-2.4-22.4,4.1-24.1,4.1c2.6,8,7-10.5,7.7-5.7c-3.3-4.8-0.8-2.7-3.1,2.1c-2.4-0.9-1.8-0.2-2.3,0.1
		c10.3,9.2-2.8,1.3-4.4-1.6c-0.1-4.7-11.9,2.8-12,1.4c-1.3-0.2,2.5-5.8,4.2-4.7c1.9-6.1-3.6,1.5-5.2,0.2c-1-3.6-4.2-6.4-6.8-9.1
		c-1.3-0.7-0.5,3.6,0.3,6.9c0.5-2.4,2.3-16.4-2.5-13.6c-3-4.5-3.1-2.5-7.6-2.4c1.5-0.6,3.5-3.6,0.4-1.2c-0.7-1.5,4.5-7.4,0.1-0.5
		c-3.4-5.9,1.4-6.6,0.6-8c-1-1.5-1.9-7.1-7.8-7.1c0.1-1.3-4-11.4-4.5-10.6c0.2-1.1,8.1-0.7,7.4-1.5c-3.2-2,1.9-8.5,0.3-6.3
		c-2.3-0.7-0.6,5.1-3.9,0.2c-4.2,4.4,1,0.4-0.2-0.5c0-4,2.3,3.4-2.7-2c-2.4,1.4-4.1,3.4-7.1,0.4c8.1-3.1-2.7-15.3,0.3-13.3
		c-3.9-2.6,0.6-2.4-0.3-4.9c-3.5-2.9,2.6-5.3,0.5-7.4c-3.8,1.9-4.9,11.8,1.3,10.6c3.3,1.5,22.6-6.5,6.4-12c-3.6,1.5,1.4-0.9-0.5-1.9
		c0.9-0.6-20.5-1.1-14.6-11.9c-0.6-5,11.9-1.5,11-4c0.4-2.6,5.4-3.9,4.1-7.1c0.4-1.8,2.8-1.6,0.2-4.4c-4.4-7.4,4.1-0.7,2.5-1.8
		c-8.6,2.5,3.1-5.4,8.1-5.2c1.9-1.3,10.3-5.6,3.4-6.2c1.8,1.1-0.4-5.7-1.3-4.4c-0.6,2.8,16.2-2.7,9.1-3.8c1.1-0.9,3,7,3.8,4.9
		c-0.1-1.6-6.7-16.1,3.7-4.1c-0.4-4,2.9-9.3,6.5-5c1.5-0.9-2.9,5,2.6,4.2c0.3-4-1.2-5.4,0.4-6.4c-2.5,9.4,4.4-0.9,6.1-0.8
		c0.5-1.8,0.1,0.2,8.9-5c-1.6,7.3,1.2-10,3.8-8.5c-2.4,6.6-0.3,13.7-3.3,7c3.9-1,1.8,0.6,5.5-1c-2.7-1.3,8.7-11.4,6.1-12.7
		c0.2-9.1,9.1,13.8,7,10.6"/>
	<g>
		<defs>
			<path id="SVGID_19_" d="M74-191.3c-65.7,0-120.7,15.2-133.9,36.1c-68.1,0-124.2,18.7-130.1,43.4l-0.5,4.1
				c0,16.1,22,30.3,55.7,38.9l-0.1,1c0,34.6,84.4,62.7,188.3,62.7c91.4,0,167.7-21.7,184.7-50.5c54.9-5.1,96.2-27.4,96.2-54
				c0-30.4-53.9-55.1-120.4-55.1c-5.1,0-10,0.2-14.9,0.4C177.6-180.2,129.7-191.3,74-191.3L74-191.3z"/>
		</defs>
		<clipPath id="SVGID_20_">
			<use xlink:href="#SVGID_19_"  style="overflow:visible;"/>
		</clipPath>
		<g class="st20">
			<path class="st3" d="M74-191.3c-65.7,0-120.7,15.2-133.9,36.1c-68.1,0-124.2,18.7-130.1,43.4l-0.5,4.1c0,16.1,22,30.3,55.7,38.9
				l-0.1,1c0,34.6,84.4,62.7,188.3,62.7c91.4,0,167.7-21.7,184.7-50.5c54.9-5.1,96.2-27.4,96.2-54c0-30.4-53.9-55.1-120.4-55.1
				c-5.1,0-10,0.2-14.9,0.4C177.6-180.2,129.7-191.3,74-191.3L74-191.3z"/>
		</g>
	</g>
</g>
<g transform="translate(731.44 201.18)">
	<g class="st21">
		<path class="st22" d="M-686.2,489.7c0-0.2,0-0.3,0-0.5c0.5-21.2,60.8-38.2,134.7-38.1c73.9,0.1,133.5,17.4,133,38.6
			c0,0.2,0,0.3,0,0.5c-0.5,21.2-60.8,38.2-134.7,38.1C-627.1,528.1-686.6,510.8-686.2,489.7L-686.2,489.7z"/>
	</g>
	
		<linearGradient id="SVGID_21_" gradientUnits="userSpaceOnUse" x1="-1273.88" y1="250.9485" x2="-1226.3199" y2="250.9485" gradientTransform="matrix(-1 0 0 -1 -976.2519 696.82)">
		<stop  offset="0" style="stop-color:#8F5902"/>
		<stop  offset="1" style="stop-color:#724701"/>
	</linearGradient>
	<path class="st23" d="M323.1,314.3c-0.2,14.1-7.5,71.1,3.7,79.1c2.1,1.5,13.7-39.5,16.1-37.8c2.2,1.5,10.1-6,10.4-0.3
		c0.7,13-11.7,57.1-21.7,64.3c-36.8,26.1,14.6,93.6,13.5,147.8c-62.3-6.1-58.7,19-92.7,6.7c-10.6-101.7,20.4-138,3.4-234.6
		c7.2-9.8,22.1-12,20.8-4.5c-3.7,21.8,22.6,27,24.9-5C301.9,323.5,317.6,323.5,323.1,314.3L323.1,314.3z"/>
	
		<linearGradient id="SVGID_22_" gradientUnits="userSpaceOnUse" x1="582.6201" y1="56.4206" x2="610.22" y2="-53.6894" gradientTransform="matrix(-0.9304 0 0 -1.091 836.9504 229.8576)">
		<stop  offset="0" style="stop-color:#4E9A06"/>
		<stop  offset="1" style="stop-color:#3F7D04"/>
	</linearGradient>
	<path class="st24" d="M255.1,50c-1.3-0.2-2.2,1.9-2.3,7.5c-5.9,9-10.1,20.3-16.3,24.2c1.9-7,2.6-23.4-1.8-9.6
		c-3.6,7.1-0.8,16.3-5.1,13.5c-9.3,0.6-19.2,19.5-24,15.4c-0.6,5.3-2.1,12.5-4.9,3.2c3.5-12.9-16-4.9-10.9,5.9
		c-4.1-8.9-14.2-13.3-8.6,0c5,13-0.5,6.3-2.3,1.8c-2,7.3-24.5,1.2-14.9,8.6c-1.1,6.9,8.8,7.8-2.6,14.4c-3.6,2.4-18.2,7.1-21.2,11.1
		c-2.7-0.6-6.3,0.7-1.1,6.1c3.9,13-8.2,30.4-23.9,26.6c-14.5,16.1,9,28.5,23.3,29.8c-6.3,5.2,19.6,6.9,9.1,18.6
		c-6.4,10.6-18.6,10.7-24.6,5.6c0,4.8,1,9.4,4,14c9.4,8.6-10.1,27.4,6.7,21.3c3.1-1.6,10.8,0.9,7.7,1.8c-0.4,1.1-0.7,2-0.9,2.6
		c0.9-0.8,2.3-0.8,4.1,2.3c7.6-12.9,1.1,3.7,0.3,9c-17.3-3.1-3.2,20.4,1.3,24.5c15.3,5.9,5,19.8,9.1,30.1c-0.1,0.3-0.1,0.7-0.1,1.1
		c8.1-5.8-6.2,6.6,4,1.8c11.5,0,14.5,10.1,14.3,20.7c0.9,0.8,1.9,2.3,3.2,4.7c5,8.1,7.2,16.8,15.9,6.9c0.6,3.5-16.6,19.8-1.1,12.4
		c10.7-9.8,15.7,2.3,22.8,8.1c0.9-0.4,1.8-0.7,2.7-1c-3.1-3.9-3.6-5.5,1.6-8.2c-2.1-11.6,7.6-1.3,2.2-0.8c0,2.4-1.7,5.9-3.7,9
		c13.2-4.6,29.7-3.8,39.1-8.8c-8.8-9.7,16.7,17.9,9.4-1.8c0.7-2.5,0.2-6.9-0.5-10.4c10.3,6.3,24.6,19.2,24.6-1.2
		c2.8,8.4,18.2-15,14.4-7.4c4.5,3.4,6.7,0.6,7.8-3.1c0,0.3,0,0.6,0,0.9c2.5,13.6,17,5.5,16.4,16.3c8.9,6.5,14.9-11.6,26-6.9
		c12-2.7-6.4-25.1,8.8-20.7c7,7.3,10.9,32.4,16,31.3c9.3,1.3-5.6-26.5,8.1-24c1.6,0.5,2.6,1,3.3,1.5c0.5-0.6,1.2-1.3,2.1-2.1
		c-0.9,0.9-1.4,1.7-1.7,2.4c-0.1-0.1-0.2-0.2-0.4-0.3c-3.3,3.8-0.7,3.9,0.5,2.7c-0.4-0.7-0.5-1.5-0.1-2.4c0.9,0.9,0.7,1.8,0.1,2.4
		c3.4,5.4,29.4,1.8,23.4-10.4c-1.4-9-1.9-26.7-3.5-29.6c5.7-0.7,6.2,8.6,9-1.9c-4.9-10.7,21-11.6,8.5-17.4c1.1-4.8,11-9.6,16.7-10.6
		c-4.9-6.5-0.3-22.6-6.9-21.7c0.8-4.7,2.6-15.7,3.9-18.8c3.7-7.7,1.4-12.8-6.4-11.7c6.4-9.6,0.3-20.8,0.1-32c-1.7,0.1-3.3-0.8,0-0.5
		c0-0.1,0-0.1,0-0.2c-10.5-9.6-6.1-21.9-8.3-35.4c-7.8,2.6-13.1-9.7-6.9,1.7c8.7,13.6-10.6-11.2-15.8-12.7c-3.8-4.2-8.4-6.4-9.9-4.9
		c-1.5-5.4-2.8-11-1.1-9.2c3.1-5.9-11.8-1.4-4.3-7.5c-2.5-10.1-9.9-11.4-16.5-7.7c5.4-4.2-17.8,2.4-21.9,2.8
		c-13.6,11.4-2.7-1.3-1.4-4.4c-2.6,1.8-5.4,4.9-7.7,7.8c0.5-13.4,8.2-28.9-9.7-30.7c-8.6-10.9-2.6,3.2-10.8,8.2
		c-4.2-3.2-2.5-14.7-1.6-18.8c-0.2,0.9-0.6,2.3-1.1,4.4c-8-3.5-4-8-12.1-10.6c-6.7-7.2-7.2-12-6.2-25.7
		c-10.9,2.3-8.8,19.2-17.9,13.6c-0.1-0.4-0.6-0.7-1.5-1.1c-0.2-0.2-0.4-0.3-0.7-0.5c-0.7-0.2-1.6-0.3-2.6-0.3
		c-0.7-0.1-1.3-0.2-2.2-0.4c-3.4-1.4-6.8-2.8-10.3-4l0,1.9C264.6,66.9,258.5,50.4,255.1,50L255.1,50z M205.4,100.8
		c0.1,0,0.1,0.1,0.2,0.1C206,96.8,205.9,93.7,205.4,100.8z M178.5,108.8c-0.7,0.2-0.4,1.5,0.2,2.9C178.9,111,178.9,110,178.5,108.8z
		 M124.9,214.2c-7.8,7.6-6.7,14.5-2.2,18.3C122.7,226.8,124,220.8,124.9,214.2z M171.7,374.2c0.8-3.9,1.4-8.2,1.4-12.5
		C169.1,357.7,169.7,368.4,171.7,374.2z M211.7,394.8c-2.5,6.1,0.5,4,3.7-0.1c-0.4-0.3-0.9-0.6-1.3-1
		C213.3,394,212.5,394.4,211.7,394.8z M219.8,396.4c-1.2-1.5-2.2-2.7-3-3.7c-0.5,0.7-0.9,1.4-1.4,2
		C216.8,395.6,218.2,396.2,219.8,396.4z M216.8,392.7L216.8,392.7L216.8,392.7L216.8,392.7L216.8,392.7z M444.8,291.1
		c0.8,1.1,1.9,1.9,3.4,2.4C449.7,291.1,447.9,290.6,444.8,291.1L444.8,291.1z M435.6,207c1.6-0.1,3.3-1.2,0.4-5.2
		c-0.3,1.5-0.4,3-0.4,4.5c0.1,0.1,0.2,0.1,0.2,0.2l-0.2,0C435.6,206.7,435.6,206.8,435.6,207L435.6,207z M319.9,95.3
		c0.2-1,0.3-1.4,0.3-1.3C320.2,94.1,320,94.5,319.9,95.3z M362.5,205.1c3,3.1,9,27.2,27.1,25.6c8.2-0.7-21.8,6.6-17.4,18.4
		c3.3,9-23-22.1-12.8-22C365.6,227.2,352.9,205.1,362.5,205.1L362.5,205.1z M140.2,272.2C139,273.3,138.9,275.7,140.2,272.2z
		 M306.7,330.2c1.1,1,2.9,1.8,5.9,1.8c0.9,0,1.6-0.1,2.2-0.1c-0.3,0.9-0.4,2-0.4,3.4c0,11.2-10.5,18.7-22.3,18.7
		s14.6-12.1,14.6-23.3C306.8,330.5,306.7,330.4,306.7,330.2L306.7,330.2z"/>
	<g class="st25">
		<path d="M60.3,393c40.6,0,74.5,8.3,82.7,19.6c42.1,0,76.7,10.2,80.4,23.6l0.3,2.2c0,8.7-13.6,16.5-34.4,21.2l0.1,0.5
			c0,18.8-52.1,34.1-116.3,34.1c-56.5,0-103.6-11.8-114.1-27.5c-33.9-2.8-59.4-14.9-59.4-29.4c0-16.5,33.3-30,74.4-30
			c3.1,0,6.2,0.1,9.2,0.2C-3.7,399.1,25.9,393,60.3,393L60.3,393z"/>
	</g>
	
		<linearGradient id="SVGID_23_" gradientUnits="userSpaceOnUse" x1="-2928.0703" y1="-201.7558" x2="-2530.4802" y2="137.6642" gradientTransform="matrix(-0.2592 0 0 -0.2592 -505.6793 322.8817)">
		<stop  offset="0" style="stop-color:#458905"/>
		<stop  offset="1" style="stop-color:#4E9A06;stop-opacity:0"/>
	</linearGradient>
	<path class="st26" d="M106.8,321c0-42.5,37.1-77,82.9-77s82.9,34.5,82.9,77c0,0,0,0,0,0.1c0,42.5-37.2,77-83,77
		C143.9,398,106.8,363.5,106.8,321L106.8,321z"/>
	
		<linearGradient id="SVGID_24_" gradientUnits="userSpaceOnUse" x1="-1133.1" y1="301.334" x2="-1102.99" y2="301.334" gradientTransform="matrix(-1 0 0 -1 -976.2519 696.82)">
		<stop  offset="0" style="stop-color:#8F5902"/>
		<stop  offset="1" style="stop-color:#724701"/>
	</linearGradient>
	<path class="st27" d="M172,195.2c0.4,105.1-10,243,22.1,379.4c-8.5-2.1-13.7,16.9-19,18.4c-19.1,5.1-30.1,4.3-47-10.7
		c-6.7-159.4,12.9-216.3,2.1-367.8C145.7,162.8,142.7,316,172,195.2L172,195.2z"/>
	<g class="st21">
		<path class="st22" d="M190.3,567.4c0-0.2,0-0.3,0-0.5c0.5-21.2,60.8-38.2,134.7-38.1c73.9,0.1,133.5,17.4,133,38.6
			c0,0.2,0,0.3,0,0.5c-0.5,21.2-60.8,38.2-134.7,38.1C249.4,605.9,189.9,588.6,190.3,567.4L190.3,567.4z"/>
	</g>
	<path class="st28" d="M382.6,522.2c4.3,6.4,10.2,27.7,10.9,24c0.5-2.1-4.2-14.8-6.5-19.1C385.2,524.6,384.7,522.9,382.6,522.2
		L382.6,522.2z M422.3,531.5c-1.8,0.2-2.7,5.6-4.5,8.4c-1.7,2.7-4.1,5-4.9,7.8C416.8,548,417.3,546.8,422.3,531.5L422.3,531.5z
		 M410,546.8c1-1.1,0.4-4.7-5.4-14.8C408.7,545,408.3,547.9,410,546.8z M394,534.2c2.2,6.2,2.1,13.6,3.5,12.8c1-0.6,0.9,0.4-0.5-6.8
		C396.4,537.3,395.4,533.8,394,534.2L394,534.2z M384.5,533.5c1.6,6.1,3.1,14.5,5.2,14.3c2.1-0.2-0.9-3.4-1.9-8.6
		C386.7,536.5,385.9,533.6,384.5,533.5L384.5,533.5z M400.3,535.5c-0.9,1.9,0.2,3.8,1.1,6c1.4,3.4,1.5,5.4,2.7,5.2
		C405.9,546.4,404.9,543.8,400.3,535.5L400.3,535.5z"/>
	<g transform="matrix(-.10667 0 0 .28172 -519.76 146.37)" class="st29">
		<path class="st30" d="M-7504.9,1730c-10.8,0.4-15.9-12.9-13.3-21.8c25.4-48,65.8-112,124-117.9
			C-7439.5,1625.9-7491.9,1672.7-7504.9,1730L-7504.9,1730z"/>
		<path class="st30" d="M-7579.5,1721.3c-5.3-3.2-12.3-4.1-15.8-9.7c-5.2-48.6,12.7-86.4,42-140.9
			C-7544,1606.5-7596.4,1691.2-7579.5,1721.3L-7579.5,1721.3z"/>
		<path class="st30" d="M-7654,1718.9c-17.7-4-25.5-22-32.4-36.9c-13.1-35.4-46.6-56-76.2-76.5
			C-7709.2,1624-7679.2,1671.6-7654,1718.9L-7654,1718.9z"/>
		<path class="st30" d="M-7831.8,1643c28.4,23.9,48.8,75.8,69,84.9C-7789.2,1729.3-7800.5,1721.4-7831.8,1643z"/>
		<path class="st30" d="M-7659,1665.6c21.6,5.3,26.6,29.7,39.3,44.8C-7641.4,1705.4-7647.2,1681.4-7659,1665.6z"/>
		<path class="st30" d="M-7504.7,1624c-15.1,18.4-25.9,39.7-36.2,61C-7560.4,1674.3-7546.7,1642.9-7504.7,1624z"/>
		<path class="st30" d="M-7800.2,1630c26.1,11,47.7,30.4,66,51.7C-7758.2,1674.8-7777.2,1641.9-7800.2,1630z"/>
	</g>
	<g transform="matrix(-.14408 0 0 .19824 26.261 217.76)" class="st29">
		<path class="st31" d="M2009,1730c-10.8,0.4-15.9-12.9-13.3-21.8c25.4-48,65.8-112,124-117.9
			C2074.4,1625.8,2021.9,1672.7,2009,1730L2009,1730z"/>
		<path class="st31" d="M1934.4,1721.3c-5.3-3.2-12.3-4.1-15.8-9.7c-5.2-48.6,12.7-86.4,42-140.9
			C1969.9,1606.5,1917.5,1691.2,1934.4,1721.3L1934.4,1721.3z"/>
		<path class="st31" d="M1859.9,1718.9c-17.7-4-25.5-22-32.4-36.9c-13.1-35.4-46.6-56-76.2-76.5
			C1804.6,1624,1834.6,1671.6,1859.9,1718.9L1859.9,1718.9z"/>
		<path class="st31" d="M1682.1,1643c28.4,23.9,48.8,75.8,69,84.9C1724.7,1729.3,1713.4,1721.4,1682.1,1643z"/>
		<path class="st31" d="M1854.9,1665.6c21.6,5.3,26.6,29.7,39.3,44.8C1872.4,1705.4,1866.6,1681.4,1854.9,1665.6z"/>
		<path class="st31" d="M2009.1,1624c-15.1,18.4-25.9,39.7-36.2,61C1953.5,1674.3,1967.1,1642.9,2009.1,1624z"/>
		<path class="st31" d="M1713.6,1630c26.1,11,47.7,30.4,66,51.7C1755.7,1674.8,1736.6,1641.9,1713.6,1630z"/>
	</g>
	<g transform="matrix(.16512 0 0 .24319 328.6 261.51)" class="st29">
		<path class="st31" d="M-5517.5,1730c-10.8,0.4-15.9-12.9-13.3-21.8c25.4-48,65.8-112,124-117.9
			C-5452.1,1625.8-5504.5,1672.7-5517.5,1730L-5517.5,1730z"/>
		<path class="st31" d="M-5592.1,1721.3c-5.3-3.2-12.3-4.1-15.8-9.7c-5.2-48.6,12.7-86.4,42-140.9
			C-5556.6,1606.5-5609,1691.2-5592.1,1721.3L-5592.1,1721.3z"/>
		<path class="st31" d="M-5666.6,1718.9c-17.7-4-25.5-22-32.4-36.9c-13.1-35.4-46.6-56-76.2-76.5
			C-5721.8,1624-5691.8,1671.6-5666.6,1718.9L-5666.6,1718.9z"/>
		<path class="st31" d="M-5844.4,1643c28.4,23.9,48.8,75.8,69,84.9C-5801.8,1729.3-5813.1,1721.4-5844.4,1643z"/>
		<path class="st31" d="M-5671.6,1665.6c21.6,5.3,26.6,29.7,39.3,44.8C-5654.1,1705.4-5659.9,1681.4-5671.6,1665.6z"/>
		<path class="st31" d="M-5517.3,1624c-15.1,18.4-25.9,39.7-36.2,61C-5573,1674.3-5559.3,1642.9-5517.3,1624z"/>
		<path class="st31" d="M-5812.8,1630c26.1,11,47.7,30.4,66,51.7C-5770.8,1674.8-5789.9,1641.9-5812.8,1630z"/>
	</g>
	<g transform="matrix(-.097322 0 0 .10834 208.08 294.34)" class="st29">
		<path class="st31" d="M6736.9,1730c-10.8,0.4-15.9-12.9-13.3-21.8c25.4-48,65.8-112,124-117.9
			C6802.3,1625.8,6749.8,1672.7,6736.9,1730L6736.9,1730z"/>
		<path class="st31" d="M6662.3,1721.3c-5.3-3.2-12.3-4.1-15.8-9.7c-5.2-48.6,12.7-86.4,42-140.9
			C6697.8,1606.5,6645.4,1691.2,6662.3,1721.3L6662.3,1721.3z"/>
		<path class="st31" d="M6587.8,1718.9c-17.7-4-25.5-22-32.4-36.9c-13.1-35.4-46.6-56-76.2-76.5
			C6532.5,1624,6562.5,1671.6,6587.8,1718.9L6587.8,1718.9z"/>
		<path class="st31" d="M6410,1643c28.4,23.9,48.8,75.8,69,84.9C6452.6,1729.3,6441.3,1721.4,6410,1643z"/>
		<path class="st31" d="M6582.8,1665.6c21.6,5.3,26.6,29.7,39.3,44.8C6600.3,1705.4,6594.5,1681.4,6582.8,1665.6z"/>
		<path class="st31" d="M6737,1624c-15.1,18.4-25.9,39.7-36.2,61C6681.4,1674.3,6695,1642.9,6737,1624z"/>
		<path class="st31" d="M6441.5,1630c26.1,11,47.7,30.4,66,51.7C6483.6,1674.8,6464.5,1641.9,6441.5,1630z"/>
	</g>
	<g transform="matrix(.085632 0 0 .082651 269.92 247.62)" class="st29">
		<path class="st31" d="M-9217.8,1730c-10.8,0.4-15.9-12.9-13.3-21.8c25.4-48,65.8-112,124-117.9
			C-9152.4,1625.8-9204.8,1672.7-9217.8,1730L-9217.8,1730z"/>
		<path class="st31" d="M-9292.4,1721.3c-5.3-3.2-12.3-4.1-15.8-9.7c-5.2-48.6,12.7-86.4,42-140.9
			C-9256.9,1606.5-9309.3,1691.2-9292.4,1721.3L-9292.4,1721.3z"/>
		<path class="st31" d="M-9366.9,1718.9c-17.7-4-25.5-22-32.4-36.9c-13.1-35.4-46.6-56-76.2-76.5
			C-9422.1,1624-9392.1,1671.6-9366.9,1718.9L-9366.9,1718.9z"/>
		<path class="st31" d="M-9544.7,1643c28.4,23.9,48.8,75.8,69,84.9C-9502.1,1729.3-9513.4,1721.4-9544.7,1643z"/>
		<path class="st31" d="M-9371.9,1665.6c21.6,5.3,26.6,29.7,39.3,44.8C-9354.4,1705.4-9360.2,1681.4-9371.9,1665.6z"/>
		<path class="st31" d="M-9217.6,1624c-15.1,18.4-25.9,39.7-36.2,61C-9273.3,1674.3-9259.7,1642.9-9217.6,1624z"/>
		<path class="st31" d="M-9513.1,1630c26.1,11,47.7,30.4,66,51.7C-9471.1,1674.8-9490.2,1641.9-9513.1,1630z"/>
	</g>
	<g class="st21">
		<path class="st22" d="M-35.4,567.4c0-0.2,0-0.3,0-0.5c0.5-21.2,60.8-38.2,134.7-38.1c73.9,0.1,133.5,17.4,133,38.6
			c0,0.2,0,0.3,0,0.5c-0.5,21.2-60.8,38.2-134.7,38.1C23.7,605.9-35.9,588.6-35.4,567.4L-35.4,567.4z"/>
	</g>
	<g transform="matrix(.19552 0 0 .24961 -454.86 153.31)">
		<path class="st30" d="M3346,1730c-10.8,0.4-15.9-12.9-13.3-21.8c25.4-48,65.8-112,124-117.9C3411.4,1625.8,3359,1672.7,3346,1730
			L3346,1730z"/>
		<path class="st30" d="M3271.4,1721.3c-5.3-3.2-12.3-4.1-15.8-9.7c-5.2-48.6,12.7-86.4,42-140.9
			C3306.9,1606.5,3254.5,1691.2,3271.4,1721.3L3271.4,1721.3z"/>
		<path class="st30" d="M3196.9,1718.9c-17.7-4-25.5-22-32.4-36.9c-13.1-35.4-46.6-56-76.2-76.5
			C3141.6,1624,3171.7,1671.6,3196.9,1718.9L3196.9,1718.9z"/>
		<path class="st30" d="M3019.1,1643c28.4,23.9,48.8,75.8,69,84.9C3061.7,1729.3,3050.4,1721.4,3019.1,1643z"/>
		<path class="st30" d="M3191.9,1665.6c21.6,5.3,26.6,29.7,39.3,44.8C3209.4,1705.4,3203.6,1681.4,3191.9,1665.6z"/>
		<path class="st30" d="M3346.2,1624c-15.1,18.4-25.9,39.7-36.2,61C3290.5,1674.3,3304.1,1642.9,3346.2,1624z"/>
		<path class="st30" d="M3050.6,1630c26.1,11,47.7,30.4,66,51.7C3092.7,1674.8,3073.6,1641.9,3050.6,1630z"/>
	</g>
	<path class="st28" d="M-634.7,349.3c-1.6,1.4-3.7,6.1-4,5.3c-0.2-0.5,1.5-3.3,2.4-4.2C-635.6,349.8-635.4,349.4-634.7,349.3
		L-634.7,349.3z M-647.5,353.2c0.6,0.6,1.5,1.1,1.8,1.7c-1.4,0-1.6-0.2-3.4-3.6C-648.5,351.4-648.1,352.6-647.5,353.2z
		 M-644.7,354.7c-0.4-0.3-0.1-1.1,2-3.3C-644.2,354.3-644,355-644.7,354.7z M-638.8,351.9c-0.8,1.4-0.8,3-1.3,2.8
		c-0.4-0.1-0.3,0.1,0.2-1.5C-639.7,352.6-639.3,351.8-638.8,351.9L-638.8,351.9z M-635.3,351.8c-0.6,1.4-1.1,3.2-1.9,3.2
		c-0.8,0,0.3-0.8,0.7-1.9C-636.2,352.4-635.9,351.8-635.3,351.8L-635.3,351.8z M-641.1,352.2c0.3,0.4-0.1,0.8-0.4,1.3
		c-0.5,0.8-0.5,1.2-1,1.2C-643.2,354.6-642.8,354.1-641.1,352.2L-641.1,352.2z"/>
	<g transform="matrix(-.2036 0 0 .28012 -14.697 93.468)" class="st29">
		<path class="st31" d="M1003.3,1730c-10.8,0.4-15.9-12.9-13.3-21.8c25.4-48,65.8-112,124-117.9
			C1068.7,1625.8,1016.3,1672.7,1003.3,1730L1003.3,1730z"/>
		<path class="st31" d="M928.7,1721.3c-5.3-3.2-12.3-4.1-15.8-9.7c-5.2-48.6,12.7-86.4,42-140.9
			C964.2,1606.5,911.8,1691.2,928.7,1721.3L928.7,1721.3z"/>
		<path class="st31" d="M854.2,1718.9c-17.7-4-25.5-22-32.4-36.9c-13.1-35.4-46.6-56-76.2-76.5C799,1624,829,1671.6,854.2,1718.9
			L854.2,1718.9z"/>
		<path class="st31" d="M676.4,1643c28.4,23.9,48.8,75.8,69,84.9C719,1729.3,707.7,1721.4,676.4,1643z"/>
		<path class="st31" d="M849.2,1665.6c21.6,5.3,26.6,29.7,39.3,44.8C866.8,1705.4,861,1681.4,849.2,1665.6z"/>
		<path class="st31" d="M1003.5,1624c-15.1,18.4-25.9,39.7-36.2,61C947.8,1674.3,961.5,1642.9,1003.5,1624z"/>
		<path class="st31" d="M708,1630c26.1,11,47.7,30.4,66,51.7C750,1674.8,731,1641.9,708,1630z"/>
	</g>
	<g transform="matrix(.23125 0 0 .34058 249.83 90.136)" class="st29">
		<path class="st31" d="M-3274.1,1730c-10.8,0.4-15.9-12.9-13.3-21.8c25.4-48,65.8-112,124-117.9
			C-3208.6,1625.8-3261.1,1672.7-3274.1,1730L-3274.1,1730z"/>
		<path class="st31" d="M-3348.6,1721.3c-5.3-3.2-12.3-4.1-15.8-9.7c-5.2-48.6,12.7-86.4,42-140.9
			C-3313.2,1606.5-3365.6,1691.2-3348.6,1721.3L-3348.6,1721.3z"/>
		<path class="st31" d="M-3423.1,1718.9c-17.7-4-25.5-22-32.4-36.9c-13.1-35.4-46.6-56-76.2-76.5
			C-3478.4,1624-3448.4,1671.6-3423.1,1718.9L-3423.1,1718.9z"/>
		<path class="st31" d="M-3601,1643c28.4,23.9,48.8,75.8,69,84.9C-3558.4,1729.3-3569.7,1721.4-3601,1643z"/>
		<path class="st31" d="M-3428.1,1665.6c21.6,5.3,26.6,29.7,39.3,44.8C-3410.6,1705.4-3416.4,1681.4-3428.1,1665.6z"/>
		<path class="st31" d="M-3273.9,1624c-15.1,18.4-25.9,39.7-36.2,61C-3329.6,1674.3-3315.9,1642.9-3273.9,1624z"/>
		<path class="st31" d="M-3569.4,1630c26.1,11,47.7,30.4,66,51.7C-3527.3,1674.8-3546.4,1641.9-3569.4,1630z"/>
	</g>
	
		<linearGradient id="SVGID_25_" gradientUnits="userSpaceOnUse" x1="549.1277" y1="88.5352" x2="541.0276" y2="-23.6348" gradientTransform="matrix(-0.7898 0 0 -1.2415 591.4847 123.0925)">
		<stop  offset="0" style="stop-color:#4E9A06"/>
		<stop  offset="1" style="stop-color:#3F7D04"/>
	</linearGradient>
	<path class="st32" d="M152-50.5c1.8,0.8,3.6,1.7,5.4,2.7c14.1,3.7,4.5,9.3-5.3,10.9c-16.5,0.6,3.4-10.2,10.4-8.1
		c11,9.7,10.9-10.1,19.4-13.8c-2.6,13.3,2.1,27.9,10.8,35.5c3.5,15.2,8-10.1,5.1,5.8c-3.2,10.2,4.3,22.6,6.3,5.7
		c10.7-5.7,19.7,19.2,13.5,31.8c3.8,7.8-6.6,21.7-6.1,9.2c2,6.2,2.9-3.4,8.7-9.2c-0.7,0,8.2,1.9,24.2-4.7c-5.3,10.4,5.5-9.3,9,3.2
		c7.2,12,7.5,19,10,33.5c0,5.6-3.6-15.2,5.5-3.3c5.2,3.8,17.5,25.2,15.8,18.4c-9.7-11.6,7.7-5.8,6,3.1c-2.5,9.4,0.7,32.8,6.9,32.5
		c-3.3-0.8,4.2,25.7-0.8,34.1c11.4,7.3,2.2,23.7,1.8,37.3c2.8,0.3,3,17.9,6.1,26.5c9.3-2.4-23.3,4.3-11.6,14.6
		c-6.3,6.1-11.2,10.7-11.5,20.4c-10.2-3.5-3.6,6.4-4.4,15.6c6.1,14.1-1.2,39.3-19.4,28.2c4.8-14.3-4.5,8.9,1.6-2.2
		c-13.6-12.2-7.2,14.6-8.7,21.8c-9.8,6.4-8.5-22.1-13.8-28.8c-11-14.1-5,11.6-7,17.8c-8.1-0.1-14.4,7.6-22,11.5
		c-2.7-9.4-17.9-10.3-16.6-22.7c2.2-21.2-0.4,18.3-6.3,3.2c-1.7,8.9-10.6,9.2-13.4,13.7c1.5,16.2-11.4,6.2-17.9,0.3
		c-8.5-18.7,1,3.2-1.1,12.3c1.2,16.5-12.7-10.2-9.1-0.4c-8.7,4.6-24.2,4.3-34.9,11.5c-8.1,11.2,6.4-4,5.7-9.8
		c2.1-13.5-4.2-2.2-5.5,3.8c8.8,18.5-6.1-4.8-12.7-8.2c-9.8,7.3-16.8,7.2-7.1-6.5c-1.4,2.2-11.7-0.9-12.3-9.3
		c-2.8-12.7-7.7-7.8-5.1,2.3c2.8,4.1,5.7-30.7-7.7-33c-9.4,1.6-1.3-1.9-5.7-4.1c3.4-12.3,1.7,2.4-1.6-2.5
		c8.8-18.1-8.9-29.4-12.4-45.5c-9.8-14.4,10.3-9.5,7.1-21.2c2.1-12.4-1.2-0.8-3.5-4.8c-6.8,3.2,2.6-2.6-2.7-5.3
		c-8.6,3.5-15.7,0.1-8.6-10.1c-1.6-16.3-9.9-32.6-3.7-48.9c-13.4,10.7,1.7,34.7,14.4,17.8c12.8-11-0.6-19.7-4.9-28.1
		c-16.5,4.8-32.1-28.5-12.1-33.5c16.5-0.9,15.7-25.1,13.4-36c8.6,3.4-3.8,4.6,4.8-3.2c13-6,25.1-14.4,16-30
		c5.4,6.2,17.1-13.4,13.8-6c3.9,13.2,4.1,2.1,1.3-4.5c-3.8-18.7,11.9,10.3,7.5-1.7c1.6-14.2,13.3-9.2,11.3,2.7
		c5.4-1,0.4-20.5,4.5-8.1c7.4-11.9,23.6-14.6,22.1-30c3.8-19.7,4.8,1.9,2.3,9.2c1.2-1.6,10.6-19.2,13.2-26.8
		c1.3-24.4,12.3,8.3,11.5,16.9"/>
	<g transform="matrix(-.17021 0 0 .25068 334.57 83.993)" class="st29">
		<path class="st31" d="M5314.8,1730c-10.8,0.4-15.9-12.9-13.3-21.8c25.4-48,65.8-112,124-117.9
			C5380.3,1625.8,5327.8,1672.7,5314.8,1730L5314.8,1730z"/>
		<path class="st31" d="M5240.3,1721.3c-5.3-3.2-12.3-4.1-15.8-9.7c-5.2-48.6,12.7-86.4,42-140.9
			C5275.7,1606.5,5223.3,1691.2,5240.3,1721.3L5240.3,1721.3z"/>
		<path class="st31" d="M5165.7,1718.9c-17.7-4-25.5-22-32.4-36.9c-13.1-35.4-46.6-56-76.2-76.5
			C5110.5,1624,5140.5,1671.6,5165.7,1718.9L5165.7,1718.9z"/>
		<path class="st31" d="M4987.9,1643c28.4,23.9,48.8,75.8,69,84.9C5030.5,1729.3,5019.2,1721.4,4987.9,1643z"/>
		<path class="st31" d="M5160.8,1665.6c21.6,5.3,26.6,29.7,39.3,44.8C5178.3,1705.4,5172.5,1681.4,5160.8,1665.6z"/>
		<path class="st31" d="M5315,1624c-15.1,18.4-25.9,39.7-36.2,61C5259.3,1674.3,5273,1642.9,5315,1624z"/>
		<path class="st31" d="M5019.5,1630c26.1,11,47.7,30.4,66,51.7C5061.6,1674.8,5042.5,1641.9,5019.5,1630z"/>
	</g>
</g>
</svg>
